<?xml version="1.0" standalone="no"?>
<!DOCTYPE svg PUBLIC "-//W3C//DTD SVG 20010904//EN"
 "http://www.w3.org/TR/2001/REC-SVG-20010904/DTD/svg10.dtd">
<svg version="1.0" xmlns="http://www.w3.org/2000/svg"
 width="1280.000000pt" height="640.000000pt" viewBox="0 0 1280.000000 640.000000"
 preserveAspectRatio="xMidYMid meet">
<metadata>
Created by potrace 1.16, written by Peter Selinger 2001-2019
</metadata>
<g transform="translate(0.000000,640.000000) scale(0.100000,-0.100000)"
fill="#000000" stroke="none">
<path d="M0 5720 c0 -538 3 -679 13 -675 6 2 55 6 108 9 83 4 102 2 135 -14
41 -22 69 -26 59 -10 -3 6 -2 10 4 10 5 0 18 3 28 6 15 5 15 4 3 -5 -12 -9
-10 -11 11 -11 22 0 27 -4 25 -25 0 -16 -7 -25 -18 -25 -9 0 -19 -4 -22 -9 -8
-12 -108 -24 -194 -22 -91 2 -155 -14 -150 -37 2 -10 16 -19 33 -22 25 -5 30
-10 30 -35 0 -27 2 -29 40 -29 77 1 221 26 295 51 62 21 86 24 140 19 37 -3
82 -1 105 5 21 6 98 12 170 13 l130 1 -2 50 c-2 28 -6 362 -9 743 l-6 692 -31
0 -32 0 0 -603 0 -602 -25 -45 c-32 -55 -88 -120 -115 -130 -40 -15 -68 18
-81 94 -14 82 -22 522 -17 884 l5 402 -74 0 -75 0 -7 -62 c-3 -35 -3 -187 0
-337 3 -177 1 -291 -5 -320 -6 -26 -13 -118 -15 -206 -3 -88 -5 -168 -5 -177
-1 -10 -8 -18 -16 -18 -9 0 -15 -9 -15 -22 0 -13 -7 -32 -15 -42 -13 -17 -15
-17 -21 -3 -3 9 -10 14 -15 11 -5 -3 -10 3 -10 13 -1 10 -3 32 -5 48 -1 17 -3
274 -4 573 l-1 542 -174 0 -175 0 0 -680z"/>
<path d="M1160 5727 c0 -418 -4 -685 -10 -707 -5 -19 -7 -50 -4 -68 6 -33 7
-33 58 -30 39 2 50 6 47 18 -2 8 -5 89 -5 180 -1 111 -8 196 -20 260 -16 83
-18 153 -18 558 l0 462 -24 0 -24 0 0 -673z"/>
<path d="M1799 6378 c-5 -85 5 -256 17 -284 16 -39 18 -114 4 -162 -5 -19 -11
-124 -14 -235 -8 -291 -25 -624 -36 -680 -6 -27 -10 -64 -10 -82 0 -28 4 -34
28 -39 62 -13 202 -26 274 -26 42 0 107 -6 145 -14 97 -21 375 -24 403 -6 13
9 13 12 0 23 -27 21 -67 81 -76 112 -20 69 -18 1146 2 1278 3 20 3 60 -1 87
l-7 50 -364 0 -364 0 -1 -22z"/>
<path d="M2786 6378 c-9 -35 -7 -113 3 -123 5 -6 14 -86 21 -180 8 -112 16
-175 25 -184 8 -8 11 -27 8 -51 -4 -30 -1 -42 16 -59 l22 -22 -2 53 c-1 29 3
73 10 98 6 25 14 86 17 135 7 98 32 174 82 247 16 24 31 58 34 76 l5 32 -118
0 c-113 0 -117 -1 -123 -22z"/>
<path d="M3375 6386 c-6 -7 -34 -41 -62 -75 -50 -59 -67 -104 -46 -125 12 -12
32 -98 33 -139 0 -21 4 -47 10 -57 10 -19 16 -55 25 -165 7 -83 31 -169 51
-186 19 -16 23 -10 39 53 11 46 13 49 14 20 1 -18 11 -48 24 -65 13 -18 31
-52 40 -77 16 -42 16 -46 0 -57 -9 -7 -12 -13 -6 -13 18 0 34 26 27 46 -4 14
-3 15 4 5 7 -10 16 0 35 40 15 30 26 51 27 48 1 -17 -26 -78 -47 -105 -12 -17
-23 -35 -23 -40 -1 -5 -25 -34 -55 -64 -30 -30 -55 -61 -55 -68 0 -22 29 -25
58 -6 15 10 30 17 34 16 5 -1 7 1 7 6 -1 4 -1 14 0 22 1 13 3 13 10 0 6 -8 7
-18 5 -22 -3 -4 5 -8 18 -9 13 0 17 -3 11 -6 -8 -3 -13 -23 -13 -49 0 -25 4
-43 9 -40 5 3 14 -1 21 -9 10 -12 9 -15 -5 -15 -14 0 -16 -9 -13 -65 1 -36 0
-65 -4 -65 -5 0 -8 -9 -8 -20 0 -12 -16 -30 -40 -46 -35 -23 -45 -25 -87 -18
-27 4 -52 6 -58 4 -5 -1 -24 -3 -42 -4 -18 -1 -35 -5 -39 -9 -4 -4 -16 -7 -26
-7 -16 0 -44 -42 -40 -61 1 -3 -9 -4 -22 -2 -13 3 -27 0 -30 -6 -4 -6 -17 -11
-29 -11 -14 0 -18 -3 -11 -10 6 -6 21 -6 41 -1 38 11 94 0 157 -31 51 -24 66
-48 40 -63 -9 -5 -24 -18 -33 -27 -8 -10 -27 -18 -42 -18 -31 0 -98 -48 -99
-71 0 -20 -44 -62 -54 -52 -4 4 -4 -1 -1 -12 4 -14 -2 -10 -19 11 -21 25 -32
30 -56 26 -23 -3 -32 -11 -36 -31 -12 -54 -37 -127 -53 -156 -35 -61 -42 -96
-26 -122 9 -12 21 -22 28 -20 6 1 11 -3 10 -9 -1 -7 13 -15 32 -18 37 -7 48
-17 40 -38 -7 -18 -113 -16 -142 3 -14 8 -23 24 -23 40 0 17 -8 29 -22 37 -38
18 -134 42 -170 42 -18 0 -69 7 -113 16 -44 9 -96 17 -115 19 -19 2 -80 8
-135 15 -55 6 -120 13 -145 16 -25 2 -85 9 -135 14 -49 6 -128 9 -175 8 -109
-3 -416 20 -500 37 -42 8 -118 12 -213 10 -94 -2 -170 1 -210 9 -34 7 -63 10
-65 7 -1 -4 -44 -3 -95 2 -50 4 -207 5 -347 0 -140 -4 -277 -8 -305 -9 -27 0
-69 -2 -92 -2 l-43 -2 0 -444 0 -444 53 1 c28 0 117 -5 197 -12 80 -6 267 -16
415 -21 149 -5 288 -14 310 -19 22 -6 72 -11 110 -11 39 0 88 -5 110 -10 22
-5 119 -18 215 -29 96 -11 197 -27 223 -35 101 -30 161 -97 141 -154 -8 -24
-15 -27 -55 -28 -80 -1 -89 -23 -35 -85 18 -22 44 -67 56 -100 12 -34 37 -77
56 -97 39 -42 36 -35 38 -89 1 -23 -1 -40 -6 -37 -13 8 -11 2 38 -113 46 -109
64 -158 82 -223 6 -19 24 -73 40 -120 17 -47 36 -112 43 -145 7 -33 21 -79 31
-103 26 -62 23 -86 -15 -119 -18 -16 -43 -45 -56 -66 -19 -32 -26 -36 -49 -31
-39 10 -39 10 -57 64 -9 27 -24 54 -33 59 -33 19 -7 151 29 151 30 0 24 58
-25 230 -81 281 -182 562 -218 599 -24 27 -39 26 -70 -1 -37 -34 -40 -63 -14
-153 74 -251 152 -583 154 -649 1 -87 14 -138 44 -172 26 -29 29 -40 24 -72
-3 -20 -9 -68 -12 -107 -5 -61 -4 -73 14 -95 19 -24 21 -24 73 -11 30 7 73 20
97 28 40 15 48 15 98 -1 30 -10 67 -16 82 -14 15 1 26 -2 25 -8 -1 -5 -5 -50
-8 -99 -4 -50 -24 -164 -45 -255 -22 -91 -55 -250 -75 -355 -51 -276 -92 -475
-97 -480 -2 -3 -18 -7 -34 -11 -41 -8 -68 19 -84 84 -13 55 -30 72 -72 72 -26
0 -44 -39 -69 -150 -20 -89 -28 -96 -122 -110 -45 -6 -102 -10 -127 -8 l-45 3
4 146 c4 166 -4 206 -48 232 -24 14 -38 16 -70 8 -32 -7 -46 -5 -69 9 -34 21
-47 52 -61 140 -22 142 -32 194 -42 212 -15 27 -3 65 28 94 24 22 25 28 17 62
-7 27 -14 37 -29 37 -52 0 -76 37 -90 136 -3 26 -12 55 -19 65 -13 17 -15 17
-28 -14 -19 -47 -107 -147 -146 -166 -54 -26 -96 -18 -68 13 8 9 17 38 21 65
7 45 6 49 -10 42 -19 -7 -35 8 -35 32 0 17 89 112 105 112 18 0 28 -49 14 -66
-19 -23 -1 -30 20 -8 11 10 38 32 60 48 23 17 41 36 41 43 0 8 -7 43 -16 78
-16 62 -14 94 5 124 11 17 84 16 256 0 61 -6 142 -13 180 -14 39 -2 77 -6 86
-9 21 -9 105 28 117 51 18 36 -17 289 -69 488 -34 130 -114 431 -141 530 -27
97 -61 180 -74 180 -17 0 -114 69 -114 81 0 5 -6 19 -14 29 -13 18 -14 18 -50
-5 -33 -20 -46 -22 -104 -16 -221 20 -296 27 -469 41 -310 24 -351 20 -291
-30 21 -18 34 -38 35 -56 1 -31 -4 -34 -77 -44 -24 -4 -48 -9 -52 -11 -4 -3
-16 0 -25 5 -10 6 -12 11 -5 11 6 0 12 5 12 10 0 13 -68 3 -87 -12 -7 -6 -19
-5 -32 2 l-21 11 20 -36 c28 -50 25 -81 -10 -117 l-30 -30 2 -869 3 -870 25
48 c22 41 30 48 55 48 28 0 30 -2 32 -44 4 -60 9 -61 26 -5 7 26 19 50 25 52
15 5 15 -22 0 -67 -24 -75 -32 -89 -47 -83 -11 4 -13 0 -9 -16 4 -12 2 -22 -3
-22 -5 0 -9 -7 -9 -15 0 -8 -5 -15 -11 -15 -5 0 -8 -4 -5 -9 3 -5 -14 -42 -39
-82 l-45 -73 0 -523 0 -523 824 0 825 0 -6 35 c-3 19 -3 42 1 51 5 14 9 14 22
3 12 -9 15 -24 11 -51 l-5 -38 111 0 c80 0 120 4 141 15 35 18 36 18 36 0 0
-13 204 -15 1779 -15 l1779 0 11 32 c22 62 24 132 6 193 -18 65 -64 139 -96
156 -35 19 -17 18 66 -1 76 -18 81 -18 104 -2 13 9 45 53 72 97 l48 80 52 0
c45 1 55 5 75 30 13 17 33 50 45 75 12 25 57 102 102 173 61 96 85 126 97 122
19 -6 62 58 125 185 21 41 42 82 47 90 62 103 109 268 138 480 6 47 20 121 30
165 14 62 20 142 26 352 5 203 10 270 19 267 6 -3 10 -17 7 -33 -4 -27 12 -50
26 -37 9 10 13 62 12 144 -1 39 3 72 8 72 5 0 7 11 5 24 -4 21 -1 24 46 30 28
4 51 11 51 16 0 22 40 9 54 -17 15 -31 25 -147 13 -159 -10 -10 -9 -134 2
-134 5 0 12 -15 16 -33 8 -32 12 -285 6 -427 -3 -101 6 -301 18 -375 8 -51 6
-66 -10 -101 l-19 -40 -138 -11 c-81 -6 -148 -17 -161 -24 -18 -12 -23 -12
-31 1 -8 13 -10 12 -10 -2 0 -10 -8 -18 -17 -18 -11 0 -14 -3 -7 -8 6 -4 13
-15 17 -25 4 -11 12 -15 19 -11 7 5 9 2 5 -8 -7 -19 35 -28 158 -34 87 -4 164
-18 235 -42 68 -23 230 -27 322 -8 42 9 79 16 82 16 3 0 14 10 26 22 25 27
120 58 180 58 40 0 93 10 140 26 27 10 -62 42 -135 49 -76 8 -111 30 -142 89
-17 33 -12 101 9 136 11 17 9 31 -11 86 -28 79 -25 128 14 186 14 22 24 46 21
55 -8 19 11 53 29 53 9 0 25 12 38 27 12 15 37 41 56 58 31 28 56 70 53 87 -1
5 2 8 7 8 5 0 11 9 13 21 3 18 14 10 78 -50 63 -59 89 -77 165 -107 61 -25
120 -40 183 -47 50 -6 92 -14 92 -18 0 -10 -114 -8 -127 3 -7 5 -30 11 -52 11
-21 1 -37 5 -34 10 6 10 -5 9 -30 -5 -21 -11 -21 -10 -7 7 14 17 13 18 -3 12
-10 -4 -23 -7 -28 -7 -6 0 -7 -4 -4 -10 3 -5 0 -7 -8 -5 -7 3 -26 -1 -42 -9
-24 -13 -26 -16 -12 -22 30 -11 18 -24 -23 -24 -22 0 -40 -4 -40 -10 0 -10 35
-8 176 12 45 6 100 8 123 5 23 -3 41 -1 41 4 0 5 9 9 20 9 11 0 20 -4 20 -9 0
-13 94 -4 98 9 2 6 8 8 13 4 5 -3 9 0 9 6 0 7 -7 9 -16 6 -9 -3 -28 -9 -42
-12 -25 -6 -24 -4 8 18 19 14 55 35 80 48 25 14 53 31 63 39 18 15 24 2 8 -14
-12 -12 -83 -181 -126 -300 -17 -49 -37 -126 -44 -170 -7 -44 -22 -110 -33
-146 -22 -69 -20 -106 8 -134 14 -13 14 -18 2 -33 -7 -9 -16 -19 -19 -22 -4
-3 -18 -31 -33 -62 -15 -33 -34 -58 -42 -58 -36 0 -134 -105 -134 -143 0 -5
-18 -29 -40 -53 -22 -24 -40 -51 -40 -59 0 -26 104 -248 150 -322 24 -37 58
-87 76 -109 30 -37 33 -49 36 -115 l3 -74 97 -5 c53 -3 100 -8 103 -12 4 -4 2
-42 -5 -85 -7 -43 -15 -97 -17 -120 l-5 -43 2331 0 2331 0 0 3200 0 3200
-1720 0 -1720 0 0 -60 c0 -33 -5 -69 -12 -79 -9 -15 -9 -33 1 -83 8 -35 14
-84 15 -109 l2 -46 -67 -6 c-70 -6 -134 -32 -218 -90 -24 -16 -41 -25 -38 -20
4 6 10 48 13 94 6 81 39 182 81 246 11 16 12 27 4 42 -6 11 -11 40 -11 65 l0
46 -2315 0 -2315 0 -2 -147 c0 -82 0 -172 1 -200 3 -46 0 -53 -16 -53 -15 0
-16 -2 -3 -10 9 -6 10 -10 3 -10 -15 0 -25 15 -16 24 12 12 15 58 3 51 -5 -3
-10 -1 -10 4 0 6 3 11 8 11 4 0 7 74 8 165 l1 165 -203 0 -202 0 -13 -37 c-6
-21 -18 -41 -25 -46 -7 -4 -18 -23 -24 -42 -6 -19 -17 -35 -24 -35 -7 0 -25
-11 -38 -25 -23 -23 -26 -23 -32 -8 -4 9 1 40 10 69 10 34 14 66 10 88 l-7 36
-272 0 c-220 0 -274 -3 -282 -14z m8577 -122 c14 -7 33 -20 41 -29 20 -19 119
-45 177 -45 25 0 74 -5 110 -10 35 -5 69 -5 75 -1 19 15 84 22 105 11 17 -9
20 -17 14 -48 -9 -50 -18 -58 -51 -43 -45 20 -112 30 -106 16 2 -7 0 -16 -6
-20 -6 -3 -11 -14 -11 -24 0 -10 -7 -24 -15 -31 -9 -8 -15 -30 -15 -58 0 -25
-7 -72 -16 -104 -16 -54 -19 -59 -56 -68 -64 -18 -94 0 -102 61 -12 95 -19
135 -28 146 -5 6 -8 31 -6 54 2 24 -2 44 -8 46 -6 2 -32 -17 -59 -41 -39 -37
-46 -49 -41 -68 17 -55 18 -153 2 -188 -16 -35 -37 -70 -46 -80 -44 -45 -51
-59 -40 -79 6 -12 13 -70 15 -129 3 -59 7 -139 11 -177 5 -61 3 -74 -15 -97
-38 -47 -117 -73 -145 -45 -7 6 -27 24 -45 40 -35 31 -41 71 -17 128 7 19 14
63 15 99 2 36 6 83 10 105 12 66 6 126 -22 199 -19 47 -27 88 -27 130 0 71
-24 121 -67 137 -14 5 -48 28 -74 50 -40 33 -49 47 -49 72 0 37 29 85 62 104
31 18 390 7 430 -13z m-3852 -45 c25 -5 63 -12 85 -15 27 -4 52 -18 78 -42 20
-20 37 -39 37 -43 0 -10 69 -129 87 -150 21 -25 30 -129 12 -129 -8 0 -31 -24
-53 -53 -31 -44 -48 -57 -90 -72 -79 -28 -143 -62 -184 -99 -21 -19 -53 -36
-74 -40 -28 -5 -42 -15 -53 -36 -9 -17 -22 -30 -29 -30 -8 0 -27 -7 -42 -15
-16 -8 -47 -15 -69 -15 -22 1 -69 -1 -105 -4 -78 -6 -130 2 -130 19 0 19 -20
23 -58 13 -18 -5 -42 -6 -52 -3 -12 4 -31 -2 -49 -14 -16 -12 -40 -20 -52 -18
-21 3 -25 14 -40 88 -9 46 -14 93 -11 104 8 28 80 95 102 95 10 0 35 -22 57
-49 45 -58 77 -75 129 -67 48 8 64 22 64 57 0 15 5 31 10 34 6 3 10 14 10 25
0 21 25 33 51 25 11 -4 26 2 37 13 11 11 38 23 61 27 48 8 48 9 54 180 4 112
17 161 46 170 9 3 32 19 50 36 25 22 40 29 55 24 12 -4 41 -11 66 -16z m-2895
-35 c67 9 81 -11 87 -128 5 -87 3 -101 -13 -117 -11 -11 -26 -19 -35 -19 -15
0 -67 -20 -107 -41 -10 -5 -21 -8 -25 -5 -5 3 -7 69 -6 148 2 196 -1 179 32
167 15 -6 45 -8 67 -5z m5676 -230 c19 -42 20 -53 10 -127 -26 -196 -41 -800
-21 -812 4 -3 28 4 52 15 38 17 101 29 313 61 33 5 78 16 101 25 34 13 53 14
115 4 41 -6 199 -13 352 -17 267 -6 277 -5 277 13 0 11 14 32 30 48 17 16 29
31 26 33 -6 7 19 33 32 33 5 0 26 18 47 39 51 53 106 60 145 21 17 -17 59 -31
119 -40 38 -5 80 -14 93 -19 13 -5 42 -15 65 -21 23 -7 44 -19 48 -28 4 -11 9
-12 19 -3 10 8 16 8 25 -3 19 -23 9 -51 -17 -50 -12 0 -22 -3 -22 -8 0 -5 -19
-6 -43 -3 -38 6 -44 4 -54 -17 -20 -41 -22 -72 -7 -93 10 -14 17 -16 22 -8 13
20 45 8 55 -21 12 -37 -1 -49 -55 -50 -24 -1 -49 -7 -56 -14 -18 -16 -32 -6
-32 23 0 13 -4 27 -10 30 -5 3 -10 -2 -10 -13 0 -17 -10 -19 -107 -21 -131 -2
-166 -17 -171 -71 -2 -19 -10 -39 -18 -43 -13 -8 -13 -12 1 -34 9 -13 14 -31
11 -39 -3 -8 0 -14 7 -14 7 0 29 -9 50 -20 21 -11 42 -18 47 -15 15 9 12 -8
-6 -34 -16 -22 -88 -60 -128 -68 -11 -2 -28 -11 -38 -20 -14 -13 -20 -13 -33
-3 -10 8 -15 9 -15 1 0 -6 4 -11 8 -11 4 0 13 -26 18 -57 12 -63 9 -70 -66
-151 -26 -28 -60 -95 -60 -117 0 -7 -18 -33 -40 -57 -23 -23 -51 -55 -64 -69
-16 -18 -55 -36 -127 -59 -128 -40 -170 -58 -284 -125 -49 -29 -117 -66 -150
-84 -33 -17 -70 -40 -83 -49 l-23 -18 36 -88 c55 -132 116 -308 112 -320 -2
-6 -9 6 -16 27 -22 66 -50 38 -31 -32 9 -34 15 -41 35 -41 14 0 23 5 21 13 -1
6 -1 9 1 5 3 -5 11 -8 19 -8 12 0 12 -3 3 -13 -7 -7 -25 -11 -42 -9 -21 3 -28
1 -23 -7 4 -6 14 -11 22 -11 8 0 15 -11 16 -25 0 -14 1 -31 2 -37 1 -7 7 -17
14 -21 6 -4 12 -12 12 -17 0 -5 14 -32 30 -60 17 -28 30 -65 30 -83 1 -46 17
-111 29 -115 6 -2 11 -11 11 -21 0 -9 5 -22 12 -29 17 -17 -6 -89 -29 -89 -10
1 -31 -1 -48 -3 -28 -3 -27 -3 10 -10 l40 -7 -40 -2 c-23 0 -46 4 -53 11 -6 6
-15 9 -18 5 -4 -3 1 -13 10 -22 9 -9 16 -21 16 -26 0 -5 11 -32 25 -61 14 -28
25 -59 25 -68 0 -9 9 -25 21 -36 l21 -19 -4 61 c-3 33 -8 65 -12 72 -7 11 6
17 28 13 5 -1 6 11 3 27 -6 31 1 72 12 72 10 0 104 -378 98 -394 -3 -8 -2 -16
3 -18 10 -3 48 -191 75 -368 9 -58 23 -133 30 -168 8 -35 15 -75 14 -90 -1
-28 0 -29 -38 98 -6 19 -9 24 -6 10 2 -14 0 -31 -4 -39 -8 -13 -26 16 -45 72
-3 9 -9 17 -13 16 -26 -4 -33 4 -33 36 0 26 -5 38 -20 43 -18 7 -18 10 -6 34
8 15 11 29 8 33 -4 3 -7 25 -8 48 -2 23 -3 45 -3 50 -1 4 -5 7 -11 7 -5 0 -9
-6 -7 -12 1 -8 -7 -12 -21 -10 -20 3 -23 0 -18 -16 4 -11 -1 -27 -13 -41 l-19
-21 -6 25 c-4 14 -4 36 0 50 9 35 -1 31 -31 -12 -30 -45 -32 -36 -5 35 21 56
27 151 9 169 -5 5 -14 46 -19 89 -4 43 -16 106 -25 139 -9 33 -19 70 -21 82
-2 12 -8 33 -14 47 -5 13 -6 26 -3 30 3 3 -2 24 -11 46 -9 23 -14 45 -11 50 6
10 -13 58 -33 82 -11 14 -12 23 -1 51 10 29 10 43 -4 88 -10 30 -15 40 -12 22
2 -18 3 -33 1 -33 -9 0 -36 102 -35 132 1 30 2 28 14 -17 l13 -50 1 60 c1 33
4 78 6 100 5 37 4 38 -6 15 -7 -14 -11 -31 -10 -39 1 -7 -1 -11 -6 -8 -5 3 -9
54 -11 113 -3 178 -27 321 -72 419 -10 22 -21 57 -25 78 -6 32 -5 36 9 31 21
-8 20 5 -1 23 -16 13 -16 14 -1 9 10 -3 23 4 33 20 15 23 15 28 1 49 -9 13
-66 48 -131 80 -63 32 -115 61 -115 64 0 4 -16 15 -35 25 -19 11 -35 24 -35
31 0 6 -15 19 -32 28 -18 10 -48 26 -66 37 -18 11 -50 23 -70 26 -20 3 -49 14
-65 25 -15 11 -32 17 -37 14 -6 -3 -10 1 -10 9 0 17 -25 22 -35 6 -7 -11 -29
-5 -119 34 -46 20 -60 12 -26 -15 l25 -20 -39 16 c-22 8 -41 13 -44 10 -3 -2
7 -40 21 -82 15 -43 31 -108 37 -145 6 -37 13 -75 17 -84 8 -21 -3 -15 -67 35
-59 46 -70 60 -70 88 0 13 -4 23 -10 23 -14 0 -12 -33 3 -50 10 -11 8 -11 -11
1 -13 8 -23 19 -23 24 0 6 -7 14 -15 18 -19 11 -18 37 1 37 8 0 15 -4 15 -10
0 -5 5 -10 11 -10 6 0 7 6 2 13 -4 6 -9 32 -10 57 -2 25 -6 56 -9 70 -4 14 -7
53 -9 88 -1 42 -8 68 -20 82 -9 10 -14 23 -11 29 4 5 -3 12 -14 16 -11 3 -20
13 -20 22 0 32 -41 68 -93 80 -71 17 -123 17 -110 1 14 -17 33 -77 47 -149 12
-56 11 -62 -16 -126 -16 -38 -33 -69 -39 -71 -5 -2 -9 -8 -9 -13 0 -6 -33 -43
-74 -82 -40 -40 -94 -104 -120 -144 -26 -40 -60 -87 -76 -104 l-29 -33 -10 26
c-5 14 -15 55 -21 89 -14 74 -35 129 -55 145 -12 9 -1 22 62 69 97 73 103 79
78 71 -32 -9 -113 -15 -119 -8 -4 3 -27 5 -52 3 l-45 -3 6 54 c4 35 3 48 -3
39 -5 -7 -14 -11 -20 -7 -6 3 -13 -2 -15 -11 -10 -38 -7 -134 4 -152 10 -15 7
-29 -20 -82 -36 -69 -48 -86 -56 -77 -3 3 6 31 21 62 40 87 24 75 -25 -19
l-44 -83 18 -58 c20 -65 13 -89 -26 -89 -15 0 -28 8 -34 23 -5 12 -13 22 -16
22 -4 0 -5 9 -2 20 7 25 -29 79 -71 108 -18 12 -47 37 -65 56 -32 33 -34 33
-51 16 -9 -9 -38 -20 -63 -24 -28 -4 -48 -13 -51 -23 -7 -17 9 -32 34 -33 13
0 13 -1 0 -10 -13 -9 -13 -10 0 -10 9 -1 6 -6 -9 -14 -23 -13 -22 -13 22 -24
37 -10 45 -16 44 -32 -1 -19 -6 -20 -79 -16 -77 5 -78 5 -95 -25 -9 -16 -23
-29 -29 -29 -18 0 -25 -29 -13 -52 8 -15 8 -22 -1 -28 -8 -5 -10 -16 -6 -26 7
-19 -11 -84 -24 -84 -4 0 -13 13 -18 29 -16 46 -50 38 -74 -17 -11 -24 -16
-47 -12 -50 3 -4 9 -1 11 6 7 19 23 14 23 -8 0 -19 -14 -25 -47 -21 -7 1 -13
-3 -13 -9 0 -5 7 -10 15 -10 21 0 19 -36 -2 -45 -10 -3 -19 -1 -22 6 -2 8 -6
7 -12 -2 -9 -16 -26 21 -35 79 -5 33 5 59 85 217 77 150 102 191 155 245 34
36 82 91 106 123 24 32 51 62 61 68 16 8 17 13 7 35 -10 20 -9 27 2 34 16 10
35 -13 25 -30 -3 -6 1 -7 9 -4 9 3 16 17 16 29 0 34 14 38 39 11 21 -22 28
-23 121 -20 79 2 102 0 115 -12 21 -21 19 -30 -14 -64 -33 -35 -69 -43 -49
-10 17 27 9 31 -37 18 -22 -5 -52 -10 -67 -9 -15 0 -30 -4 -33 -9 -4 -6 -16
-10 -27 -10 -25 0 -17 -12 10 -15 9 -1 24 -5 32 -8 8 -3 22 -8 30 -10 11 -3 8
-8 -10 -15 -14 -5 -26 -6 -28 -1 -2 5 -11 9 -20 9 -13 -1 -10 -6 10 -23 58
-47 89 -69 92 -66 2 2 11 19 20 37 10 19 20 32 22 29 3 -3 -2 -19 -10 -36 -18
-33 -21 -61 -7 -61 5 0 11 9 14 20 3 11 11 20 17 20 8 0 9 -6 5 -17 -14 -34
-17 -61 -6 -67 17 -11 47 73 66 184 1 8 5 22 8 30 3 8 8 38 11 65 3 28 22 84
42 125 19 41 50 104 67 140 53 110 164 298 244 414 42 61 93 135 112 163 24
36 41 51 52 48 18 -6 43 19 53 53 4 12 15 22 24 22 26 1 -10 26 -96 67 -72 35
-100 56 -62 46 11 -3 23 -9 26 -14 8 -13 24 -11 24 4 0 13 -79 67 -99 67 -6 0
-11 -4 -11 -10 0 -5 -9 -10 -20 -10 -11 0 -20 6 -20 14 0 8 -10 16 -22 18 -12
2 -23 9 -26 16 -3 9 3 10 24 1 20 -7 30 -7 32 0 2 6 8 9 13 5 5 -3 8 11 7 30
-3 33 -27 53 -29 24 0 -7 -5 -1 -11 15 -5 15 -14 27 -19 27 -5 0 -9 5 -9 10 0
19 21 10 29 -12 5 -14 10 -17 15 -10 4 6 2 21 -4 32 -6 11 -8 25 -5 30 3 6 0
10 -7 10 -10 0 -10 2 -1 8 7 5 11 21 9 40 -3 23 -1 32 10 32 13 0 19 23 16 63
-1 9 3 17 8 17 6 0 10 16 10 35 0 19 5 35 10 35 6 0 10 -12 10 -27 1 -16 12
-46 25 -68 14 -22 29 -50 35 -63 6 -13 17 -30 25 -38 8 -9 15 -22 15 -30 0
-20 18 -17 23 4 3 12 5 10 6 -7 0 -13 4 -21 7 -18 4 4 19 -2 33 -12 14 -10 31
-16 37 -14 5 2 18 -24 28 -57 18 -60 16 -92 -9 -152 -4 -11 -3 -18 4 -18 6 0
11 5 11 10 0 16 78 11 165 -10 46 -12 155 -25 257 -32 236 -16 222 -26 232
190 8 196 16 310 22 340 6 32 72 102 96 102 13 0 25 -14 39 -46z m-6881 -20
c0 -8 5 -12 10 -9 6 4 18 1 26 -6 13 -10 13 -15 -1 -35 -21 -33 -19 -36 15
-29 28 6 30 5 30 -22 -1 -67 -82 -171 -147 -188 -58 -14 -96 70 -73 165 11 47
14 50 45 50 31 0 33 2 31 33 -1 26 3 33 22 35 12 2 22 8 22 13 0 5 5 9 10 9 6
0 10 -7 10 -16z m5300 -9 c0 -9 6 -12 15 -9 20 8 31 -24 16 -47 -10 -17 -8
-19 14 -19 30 0 32 -19 6 -75 -23 -49 -53 -77 -112 -103 -44 -19 -47 -19 -69
-2 -20 15 -22 23 -17 67 9 74 25 103 58 103 24 0 28 4 26 27 -1 20 4 31 21 38
12 5 22 15 22 22 0 7 5 13 10 13 6 0 10 -7 10 -15z m-4790 -36 c0 -12 5 -19
13 -16 6 2 21 -12 32 -32 11 -19 31 -38 44 -41 16 -3 32 -23 50 -58 24 -47 29
-52 40 -38 14 17 58 21 77 8 34 -23 15 -93 -31 -114 -28 -12 -28 -15 -15 -112
4 -37 6 -83 3 -102 l-5 -33 -32 23 c-17 13 -54 35 -83 50 -62 31 -74 46 -38
46 21 0 26 4 21 17 -4 9 -1 20 6 25 10 6 9 8 -4 8 -13 0 -8 9 17 34 19 18 35
42 35 53 0 11 -29 54 -64 95 -35 41 -67 84 -70 96 -4 12 -12 22 -17 22 -5 0
-9 12 -8 28 0 24 1 25 10 7 7 -15 8 -9 5 23 -2 23 0 40 5 36 5 -3 9 -14 9 -25z
m5689 -219 c7 -34 9 -70 6 -80 -7 -22 -31 -27 -38 -7 -3 6 -6 2 -6 -10 -1 -20
-6 -23 -41 -23 -40 0 -44 5 -43 47 1 7 -3 10 -8 7 -5 -3 -9 2 -9 10 0 9 -9 21
-20 28 -11 7 -20 20 -20 28 0 10 3 11 8 3 10 -16 48 -21 45 -5 -2 7 7 12 21
12 13 0 26 3 28 8 3 8 50 41 59 41 4 1 12 -26 18 -59z m-2481 -229 c43 -17 62
-19 143 -11 137 11 780 7 803 -7 10 -6 27 -8 37 -6 16 4 17 0 12 -32 -11 -70
30 -75 165 -20 35 14 67 23 72 20 6 -4 10 0 10 7 0 8 5 6 11 -5 11 -18 14 -78
9 -155 -1 -23 3 -48 9 -56 8 -10 9 -16 1 -21 -5 -3 -10 -10 -10 -14 0 -13 48
-19 59 -8 6 6 11 7 11 2 0 -5 -12 -20 -27 -33 -25 -20 -25 -22 -6 -17 17 5 20
2 16 -13 -2 -11 0 -22 5 -26 16 -10 116 25 133 46 16 20 16 20 21 -8 3 -16 4
-40 3 -54 -2 -14 -4 -37 -4 -51 -1 -26 -17 -37 -63 -43 -23 -3 -25 36 -3 54 8
7 15 17 15 23 0 6 -17 -12 -37 -41 -21 -28 -44 -52 -51 -52 -17 0 -33 -16 -57
-57 l-19 -32 32 -62 c32 -61 41 -96 23 -84 -10 5 1 -44 14 -65 4 -6 -7 -10
-28 -10 -34 0 -35 -1 -122 -160 -49 -88 -93 -160 -99 -160 -6 0 -21 -3 -33 -6
-14 -4 -23 -2 -23 5 0 6 6 11 13 11 17 0 53 38 44 46 -4 4 -19 2 -34 -4 -50
-19 -101 -24 -105 -10 -4 10 -16 10 -64 -1 -32 -7 -84 -17 -114 -22 -30 -6
-71 -18 -90 -28 -19 -10 -63 -33 -98 -50 -34 -18 -87 -56 -118 -84 -43 -39
-58 -47 -64 -37 -5 8 -6 19 -3 24 10 16 3 99 -12 147 -8 24 -14 38 -14 31 -1
-7 -5 -11 -10 -7 -5 3 -13 -5 -16 -17 -4 -13 -16 -30 -26 -38 -18 -15 -34 -81
-41 -168 -1 -19 -6 -36 -10 -38 -11 -7 -10 -54 1 -54 5 0 9 -10 9 -23 0 -17
-9 -27 -29 -34 -42 -16 -63 -71 -51 -129 9 -41 7 -51 -29 -125 -22 -44 -39
-83 -39 -85 0 -3 13 4 29 15 41 29 79 28 87 -3 9 -36 -12 -88 -60 -153 -53
-72 -183 -195 -230 -217 -19 -9 -44 -31 -55 -50 -12 -19 -28 -37 -36 -40 -18
-6 -67 -103 -101 -197 -14 -39 -40 -91 -57 -116 -32 -45 -32 -45 -32 -173 l0
-128 -30 -26 c-16 -14 -26 -26 -20 -26 5 0 1 -6 -10 -14 -57 -38 -82 0 -65
100 7 38 12 78 11 89 -2 63 2 97 20 162 11 40 19 83 18 95 -4 48 2 63 31 80
36 20 42 63 10 73 -11 3 -24 3 -30 0 -6 -4 -13 7 -16 24 -4 17 -10 31 -14 31
-18 0 -28 63 -29 170 0 63 -3 185 -7 270 -5 128 -10 160 -25 181 -31 44 -49
130 -38 180 6 24 16 53 23 64 7 11 23 50 36 88 12 37 27 67 33 67 6 0 8 26 4
70 l-6 70 35 0 c21 0 43 -8 56 -20 12 -11 35 -20 51 -20 19 0 36 -9 54 -30 13
-16 28 -30 33 -30 4 0 6 69 5 153 -4 155 2 243 30 447 9 65 17 213 20 340 2
125 8 236 14 250 15 36 47 70 65 70 9 0 16 5 16 10 0 13 2 13 58 -9z m-3138
-51 c75 -17 98 -30 114 -65 13 -26 14 -43 7 -75 -9 -40 -8 -42 19 -52 47 -16
66 -108 35 -168 -23 -44 -36 -36 -18 10 19 48 8 103 -21 108 -15 3 -17 0 -11
-14 4 -11 10 -42 12 -69 4 -39 1 -54 -11 -64 -14 -12 -16 -10 -16 12 0 30 -24
57 -50 57 -22 0 -31 -12 -39 -54 -5 -22 -14 -33 -31 -37 -14 -4 -97 -30 -185
-58 -213 -69 -221 -70 -227 -37 -3 14 -1 23 3 20 5 -3 9 1 9 8 0 7 10 18 23
23 28 13 28 71 -1 94 -15 13 -19 27 -18 66 2 54 -2 51 65 43 41 -5 34 17 -11
33 -33 12 -44 22 -50 46 -5 21 -18 35 -39 44 l-32 13 54 17 c29 10 80 21 114
24 69 8 154 38 187 65 26 22 53 24 118 10z m-925 -55 c16 -53 16 -56 -3 -80
-18 -22 -18 -29 -7 -62 7 -20 21 -40 31 -43 9 -4 19 -17 21 -31 2 -13 12 -31
23 -41 12 -9 18 -23 14 -32 -4 -12 0 -16 16 -16 28 0 100 40 100 55 0 21 27
48 39 41 9 -6 9 -13 -3 -30 -9 -14 -11 -28 -6 -36 7 -11 11 -8 19 12 5 14 15
29 21 33 16 10 60 -3 60 -17 0 -6 9 -22 21 -34 26 -28 47 -168 28 -190 -7 -9
-16 -11 -23 -6 -6 5 -28 12 -49 15 -30 5 -40 2 -50 -14 -17 -28 -25 -24 -33
16 -7 39 -18 43 -52 19 -30 -21 -28 -32 11 -42 26 -7 32 -13 31 -35 -2 -49 -4
-54 -31 -66 -32 -15 -38 -15 -39 -1 -1 6 -2 13 -3 16 -3 19 -54 -50 -56 -76
-1 -17 -4 -32 -7 -35 -9 -9 0 -89 11 -93 6 -2 11 -8 11 -13 0 -23 -22 6 -54
71 -41 82 -66 203 -92 444 -16 144 -16 168 -4 176 15 9 15 12 18 98 1 28 6 52
12 52 5 0 17 -25 25 -55z m6170 30 c28 -9 51 -15 53 -15 37 4 75 -4 97 -22 24
-18 25 -22 11 -30 -11 -6 -15 -16 -11 -29 4 -10 2 -19 -3 -19 -5 0 -12 9 -15
21 -7 27 -29 20 -37 -12 -4 -13 -38 -69 -77 -124 -84 -121 -188 -279 -234
-357 -18 -32 -37 -58 -41 -58 -5 0 -4 9 2 20 12 22 6 121 -10 149 -5 11 -10
31 -10 45 0 14 -4 28 -10 31 -22 14 -8 23 29 18 53 -7 68 18 51 85 -10 41 -9
48 6 59 16 12 16 14 -1 33 -10 11 -23 20 -29 20 -16 0 -76 59 -76 75 0 8 -10
21 -22 29 -14 10 -19 19 -13 25 6 5 57 19 115 31 58 13 114 26 125 31 29 11
44 10 100 -6z m-506 -269 c18 -19 21 -31 17 -53 -5 -22 -2 -34 14 -48 11 -10
20 -31 20 -47 0 -33 -2 -33 -35 -12 -23 15 -26 15 -62 -15 -40 -33 -55 -39
-51 -18 1 6 -1 29 -6 50 -6 33 7 136 21 160 10 16 61 6 82 -17z m-3579 -188
c40 -65 16 -125 -45 -114 -19 4 -47 0 -70 -9 -43 -19 -65 -14 -65 13 0 22 23
46 33 35 4 -3 7 3 7 15 0 12 1 25 2 30 3 12 30 37 42 37 6 1 18 4 26 7 12 5
36 14 48 17 1 1 11 -14 22 -31z m6755 -143 c-8 -33 -15 -85 -15 -117 0 -43 -5
-63 -18 -76 -10 -10 -22 -26 -25 -36 -6 -15 -11 -14 -42 11 -37 30 -41 42 -24
74 7 15 7 24 -1 34 -7 8 -9 19 -5 25 4 6 2 17 -5 24 -9 11 -3 15 30 21 45 8
70 35 70 75 0 35 20 55 37 37 11 -11 11 -23 -2 -72z m-7372 -7 c39 -52 42 -83
12 -133 l-25 -43 38 -13 c20 -6 42 -15 47 -19 14 -10 74 -21 112 -21 18 1 35
-4 38 -9 3 -6 -1 -10 -10 -10 -15 0 -53 -65 -44 -74 3 -3 31 -8 62 -11 32 -3
76 -12 99 -20 23 -7 45 -12 50 -9 4 3 8 2 8 -3 0 -4 48 -9 108 -11 59 -2 115
-5 125 -8 18 -6 24 -39 8 -49 -6 -3 -5 -20 3 -43 13 -36 13 -37 -13 -39 -23
-2 -113 9 -176 22 -11 3 -36 18 -55 36 -46 40 -250 139 -287 139 -17 0 -56 9
-88 20 -32 11 -66 20 -77 20 -24 0 -23 9 3 37 19 19 20 25 8 39 -7 9 -24 20
-37 25 -19 7 -23 14 -18 32 3 12 6 32 6 45 0 14 4 20 10 17 7 -4 9 2 6 17 -3
12 -7 35 -10 50 -5 19 -1 30 11 37 33 19 61 12 86 -21z m-1749 -82 c30 -1 67
-11 90 -24 30 -16 43 -19 53 -10 7 6 16 9 18 6 7 -7 -23 -89 -39 -108 -7 -8
-16 -22 -19 -30 -4 -12 -6 -11 -6 3 -1 19 -27 22 -51 7 -13 -8 -11 -11 7 -16
41 -11 39 -64 -2 -64 -30 0 -41 -16 -25 -35 10 -12 9 -15 -8 -15 -27 0 -37 17
-21 36 9 11 8 18 -5 32 -9 10 -16 25 -16 33 0 19 -35 40 -55 33 -18 -7 -18 -9
-2 -35 10 -17 9 -22 -7 -34 -18 -14 -18 -16 -3 -33 9 -10 17 -24 17 -30 0 -12
12 -16 44 -12 11 1 15 -3 12 -9 -4 -6 -2 -11 5 -11 27 0 -14 -28 -49 -34 -20
-3 -54 -8 -74 -12 -33 -5 -38 -4 -38 13 0 10 -5 24 -11 30 -14 14 -8 69 7 66
7 -1 14 11 16 27 3 17 1 30 -4 30 -4 0 -8 7 -8 16 0 8 -6 22 -12 29 -33 37
-38 46 -38 77 0 27 6 37 31 52 17 10 33 16 36 13 2 -3 19 1 36 8 18 8 41 11
51 8 11 -3 42 -6 70 -7z m1182 -51 c25 -61 16 -145 -37 -322 -7 -23 -39 -74
-71 -114 -32 -40 -66 -92 -75 -116 -19 -44 -33 -56 -33 -26 0 31 -42 104 -66
115 -23 11 -20 14 73 112 184 193 224 273 187 370 -12 32 7 15 22 -19z m-787
-141 c14 -25 43 -61 65 -80 23 -18 62 -52 89 -73 96 -81 216 -160 249 -164 25
-4 22 -4 -11 -4 -62 2 -79 -23 -97 -149 -7 -54 -14 -101 -14 -103 0 -7 -60 57
-123 135 -37 45 -82 93 -102 108 -46 36 -102 151 -113 236 -8 57 -10 62 -19
41 -5 -14 -12 -20 -16 -15 -3 5 8 29 24 53 16 24 29 48 29 53 0 20 17 4 39
-38z m8571 -61 c55 -41 59 -49 30 -58 -24 -8 -28 -60 -5 -69 23 -9 18 -42 -10
-60 -14 -9 -25 -24 -25 -32 0 -9 -6 -14 -12 -11 -51 21 -69 36 -77 60 -7 18
-17 27 -31 27 -13 0 -24 9 -30 26 -13 32 -13 74 -1 74 5 0 11 10 14 23 3 19 5
17 12 -11 5 -23 13 -32 24 -30 9 2 15 11 13 21 -3 16 32 77 44 77 2 0 27 -17
54 -37z m-5620 -173 c0 -5 6 -10 14 -10 17 0 22 -19 36 -135 6 -49 17 -115 25
-145 17 -70 10 -106 -30 -151 -49 -54 -61 -100 -41 -152 20 -54 23 -132 12
-472 -9 -288 -13 -314 -53 -338 -8 -5 -11 -16 -8 -28 7 -23 -1 -25 -21 -5 -19
20 -100 31 -127 18 -12 -5 -42 -16 -66 -23 -24 -7 -45 -18 -48 -25 -2 -7 -12
-11 -21 -9 -9 2 -19 4 -22 4 -3 1 2 6 10 11 13 8 13 10 -1 10 -23 0 -28 38
-34 280 -6 214 -25 342 -65 444 l-20 49 29 47 c37 61 43 82 35 125 -5 30 -18
44 -68 80 -33 24 -69 50 -79 57 -11 7 -20 29 -22 48 -2 19 -12 63 -22 98 -18
63 -18 64 2 78 12 9 19 24 17 37 -2 12 -1 19 3 16 3 -4 38 2 78 12 40 10 93
19 119 19 25 0 48 4 50 9 2 6 32 12 68 15 36 3 81 10 100 16 19 5 56 10 82 10
27 0 48 5 48 10 0 6 5 10 10 10 6 0 10 -4 10 -10z m-1073 -153 c13 -27 55 -95
91 -151 104 -157 166 -271 157 -286 -3 -6 -2 -10 4 -10 5 0 13 -15 16 -32 8
-36 37 -97 65 -138 10 -14 21 -38 25 -54 10 -48 -21 -14 -40 42 -16 49 -65
135 -65 116 0 -6 9 -37 20 -69 11 -32 18 -60 16 -62 -2 -3 -9 13 -16 34 -23
70 -62 134 -79 128 -12 -3 -20 5 -28 26 -13 34 -9 54 9 43 5 -3 8 -15 5 -25
-4 -14 0 -19 15 -19 20 0 18 9 -7 40 -7 8 -16 26 -20 40 l-7 25 18 -25 c19
-26 45 -49 56 -50 3 0 -18 42 -48 94 -30 52 -54 99 -54 105 0 6 -10 17 -22 25
-13 8 -31 30 -41 48 -12 22 -26 34 -42 36 -18 1 -23 -2 -18 -14 5 -13 7 -13
14 -2 6 9 9 6 9 -10 0 -13 5 -32 10 -43 7 -12 7 -19 1 -19 -12 0 -71 102 -71
124 0 9 5 16 11 16 6 0 9 -6 6 -14 -4 -9 3 -16 16 -20 23 -6 40 4 20 11 -7 3
-13 11 -13 18 0 8 -7 21 -16 29 -8 9 -12 16 -9 16 4 0 -5 20 -19 44 -14 25
-26 48 -26 52 0 17 34 -24 57 -69z m-3527 33 c230 -31 586 -66 638 -63 17 1
32 -1 32 -4 0 -3 -24 -29 -53 -57 -49 -47 -74 -60 -87 -45 -12 14 -457 34
-810 37 -335 2 -511 5 -571 11 -12 1 -17 12 -17 42 l-1 41 52 -8 c69 -12 207
-10 215 2 4 6 34 19 67 29 150 47 263 50 535 15z m-1494 -36 c27 -14 56 -32
65 -40 8 -7 31 -19 50 -26 77 -26 105 -62 86 -108 -18 -41 -36 -57 -78 -68
-36 -9 -43 -7 -87 22 -26 18 -64 39 -85 47 -45 16 -97 64 -97 91 0 19 21 57
48 91 20 23 40 22 98 -9z m8600 -104 c24 -22 49 -38 56 -36 7 1 10 1 5 -1 -4
-3 1 -17 11 -31 36 -53 43 -82 36 -150 -7 -69 -17 -92 -40 -92 -18 0 -28 43
-16 67 14 26 1 50 -63 118 -66 70 -79 91 -70 112 7 20 -11 33 -47 33 -16 0
-28 5 -28 10 0 6 25 10 56 10 52 0 60 -3 100 -40z m-141 -117 c17 -7 55 -30
85 -51 44 -30 61 -50 87 -102 35 -70 38 -97 11 -114 -22 -13 -56 17 -89 79
-22 42 -69 80 -99 80 -11 0 -15 11 -14 44 1 42 0 43 -28 39 -19 -3 -28 0 -28
9 0 7 -5 13 -11 13 -5 0 -8 4 -5 9 4 5 0 12 -6 15 -7 3 5 3 27 -1 22 -3 54
-12 70 -20z m1214 -167 c56 -29 70 -77 62 -213 -1 -22 -38 -56 -52 -48 -4 3
-10 -2 -13 -11 -5 -13 -2 -15 15 -11 20 5 20 5 3 -14 -21 -23 -62 -25 -93 -2
-14 9 -21 11 -17 5 4 -7 3 -12 -2 -12 -25 0 -74 121 -53 128 9 3 9 7 0 18 -19
23 27 132 65 155 37 23 49 23 85 5z m-5325 -87 c35 -28 55 -79 61 -156 5 -67
4 -69 -26 -53 -14 8 -18 17 -13 35 6 25 -1 31 -23 17 -14 -9 -6 -52 9 -52 5 0
6 -5 3 -10 -8 -13 -51 40 -47 57 2 7 -2 21 -7 31 -9 15 -11 14 -11 -8 -1 -14
-3 -35 -6 -48 -3 -16 0 -21 8 -16 7 4 8 3 4 -4 -4 -7 0 -12 10 -12 10 0 14 -3
11 -7 -8 -8 -87 27 -87 39 0 4 -5 8 -11 8 -6 0 -8 -7 -5 -16 5 -14 4 -15 -9
-4 -13 11 -14 10 -9 -4 3 -9 11 -16 18 -15 6 1 19 -1 28 -5 13 -6 15 -12 8
-25 -6 -12 -5 -22 3 -30 9 -9 9 -14 -3 -21 -21 -13 -33 -1 -26 30 4 21 1 27
-11 26 -31 -2 -44 109 -20 167 38 89 97 119 151 76z m4071 -49 c27 -18 28 -20
8 -20 -12 0 -48 -26 -88 -65 -67 -65 -98 -78 -123 -53 -16 16 -15 28 3 28 18
0 35 31 35 64 0 19 7 27 24 32 32 8 46 -1 47 -29 0 -17 5 -12 22 21 24 48 30
50 72 22z m-5185 -95 l0 -46 -177 2 c-98 0 -190 -2 -205 -6 -28 -7 -28 -6 -28
39 l0 46 203 3 c111 1 203 3 205 5 1 1 2 -18 2 -43z m-1136 -27 c26 -24 35
-60 21 -90 -9 -23 -29 -23 -21 -1 4 10 4 14 0 10 -4 -4 -14 -1 -23 7 -22 19
-68 28 -76 15 -4 -6 -1 -10 6 -8 27 3 40 -1 34 -11 -3 -5 -17 -10 -29 -10 -31
0 -73 -41 -97 -95 -11 -25 -24 -45 -29 -45 -6 0 -10 -13 -10 -29 0 -17 -5 -33
-11 -37 -8 -5 -6 -10 5 -16 9 -5 16 -15 16 -22 0 -7 8 -21 19 -32 16 -17 17
-24 6 -43 -12 -23 -12 -23 -19 9 -5 28 -8 31 -22 19 -14 -12 -13 -16 15 -41
34 -30 71 -37 71 -13 0 8 5 15 10 15 6 0 10 6 10 13 0 8 10 19 23 24 18 9 25
8 33 -4 10 -15 44 -8 44 9 0 7 -5 6 -14 -1 -10 -9 -15 -8 -19 3 -8 20 31 59
54 53 19 -5 26 7 10 17 -17 11 0 48 20 43 36 -10 51 44 36 128 l-7 40 16 -29
c52 -92 -41 -271 -169 -326 -79 -34 -138 -12 -166 63 -41 108 44 342 140 390
48 23 93 21 123 -5z m-120 -144 c9 -3 16 -13 16 -21 0 -12 3 -13 13 -4 22 18
26 2 11 -41 -17 -48 -17 -58 -3 -58 5 0 19 20 30 45 19 42 40 60 38 33 -1 -27
-45 -103 -61 -106 -9 -2 -25 6 -34 17 -12 14 -22 17 -30 10 -18 -15 -44 1 -44
27 0 29 29 104 40 104 5 0 15 -3 24 -6z m-811 -72 c30 -55 68 -93 74 -75 6 18
41 -15 65 -62 16 -31 22 -61 23 -130 1 -49 6 -99 11 -110 7 -19 7 -19 -9 -3
-9 9 -17 19 -17 22 0 3 -20 34 -43 69 -55 79 -77 124 -77 152 0 29 -19 84 -40
115 -20 29 -32 70 -21 70 4 0 20 -22 34 -48z m-556 -108 c49 -37 67 -71 65
-121 -1 -25 -7 -52 -13 -59 -6 -7 -8 -21 -5 -32 4 -12 -2 -26 -18 -41 -22 -21
-26 -21 -48 -8 -12 8 -44 22 -70 32 -30 11 -48 24 -48 34 -1 9 -9 41 -20 71
-24 68 -25 99 -4 129 15 21 23 23 75 19 38 -3 69 -11 86 -24z m6839 -1853 c16
-5 42 -12 57 -16 23 -5 34 -18 57 -70 23 -50 33 -63 45 -58 13 4 16 1 13 -17
-2 -16 -13 -26 -33 -32 -36 -11 -165 -2 -179 12 -6 6 -21 10 -35 10 l-25 0 28
29 c31 33 51 98 35 118 -6 7 -8 17 -4 23 8 12 5 12 41 1z m-116 -435 c-7 -54
-7 -83 0 -90 12 -12 14 -196 2 -196 -12 0 -86 133 -142 253 -25 53 -51 96 -57
97 -18 0 -16 11 8 36 12 12 28 20 35 17 9 -3 39 18 76 53 l62 59 13 -75 c10
-57 11 -95 3 -154z m-7053 44 c28 0 63 -85 39 -93 -6 -2 -11 -12 -11 -22 0
-12 -9 -21 -25 -25 l-25 -6 23 -8 c12 -4 22 -14 22 -23 0 -18 44 -10 67 12 8
8 17 15 19 15 10 0 -17 -39 -35 -52 -10 -7 -27 -28 -38 -46 -12 -19 -30 -40
-42 -48 -11 -8 -21 -22 -21 -31 0 -10 -6 -13 -16 -9 -9 3 -20 6 -25 6 -16 0
-10 16 17 45 15 16 28 42 31 59 2 20 1 26 -5 18 -13 -19 -24 175 -11 199 6 13
6 19 -1 19 -5 0 -10 5 -10 12 0 6 7 4 18 -5 10 -10 23 -17 29 -17z m1013 -379
c0 -44 4 -83 10 -86 5 -3 32 -9 60 -12 40 -5 50 -10 50 -24 0 -24 1 -24 46 1
30 17 50 20 122 18 l87 -3 -3 -50 c-2 -49 -30 -125 -44 -125 -5 0 -8 -4 -8 -8
0 -4 -24 -34 -53 -65 -55 -60 -122 -104 -132 -87 -4 6 -10 8 -15 5 -5 -3 -11
-1 -15 4 -7 13 -36 3 -53 -18 -22 -27 -31 5 -16 57 8 25 14 55 13 66 0 20 -1
20 -9 -1 -5 -13 -14 -23 -20 -23 -5 0 -10 -8 -10 -19 0 -22 -16 -37 -51 -46
l-25 -6 2 208 c2 250 0 225 24 253 11 13 20 27 20 32 0 4 5 8 10 8 6 0 10 -33
10 -79z"/>
<path d="M9999 5243 c-34 -38 -51 -94 -53 -171 -1 -68 10 -93 20 -43 5 26 11
31 35 31 22 0 30 6 35 25 3 14 3 36 0 50 -8 31 11 33 24 3 8 -21 9 -19 9 12 1
35 -26 120 -38 120 -4 0 -18 -12 -32 -27z"/>
<path d="M10050 4965 c-17 -30 -37 -61 -43 -68 -48 -50 -40 -67 8 -19 16 15
25 21 21 15 -8 -15 0 -15 29 -3 11 5 14 9 8 9 -7 1 -13 6 -13 12 0 6 9 8 20 4
12 -4 27 -1 35 5 8 7 26 9 44 5 26 -6 31 -3 36 18 4 14 5 36 3 48 -3 22 -9 24
-59 27 l-57 3 -32 -56z"/>
<path d="M8480 5057 c-137 -12 -123 -12 -286 -2 -233 13 -223 24 -213 -260 5
-148 12 -225 23 -262 17 -52 17 -53 56 -53 33 0 40 -3 40 -20 0 -11 2 -20 6
-20 6 0 93 37 116 50 24 13 104 13 130 -1 25 -14 68 -3 68 17 0 23 -56 72 -93
82 -25 6 -32 14 -32 33 0 21 4 24 38 23 20 -1 46 -9 56 -18 9 -9 22 -16 28
-16 17 0 103 -51 103 -60 0 -14 39 -47 77 -65 19 -9 36 -22 39 -29 3 -7 18
-13 33 -14 24 0 30 4 35 30 3 17 6 41 6 55 0 30 37 113 50 113 6 0 10 11 10
24 0 14 15 40 35 61 19 20 45 58 58 83 63 123 60 117 68 96 5 -12 8 6 8 47 l1
65 -77 22 c-92 25 -232 32 -383 19z"/>
<path d="M7920 3592 c0 -7 -12 -17 -26 -22 -14 -6 -40 -21 -58 -35 -18 -14
-35 -23 -38 -20 -5 5 -16 -10 -72 -97 -10 -16 -14 -28 -10 -28 5 0 19 18 32
40 20 36 28 42 48 39 4 0 10 5 15 12 4 8 11 11 14 7 4 -3 -2 -19 -12 -35 -14
-23 -15 -26 -1 -15 9 7 21 26 28 42 7 17 19 30 27 30 11 0 10 -8 -8 -37 -33
-55 -50 -73 -71 -73 -10 0 -27 -9 -38 -20 -12 -12 -25 -18 -29 -15 -14 8 -21
-21 -8 -34 17 -17 27 -14 49 14 11 14 26 25 34 25 8 0 14 5 14 10 0 6 14 24
30 40 17 16 30 34 30 39 0 6 11 18 25 27 30 20 54 89 37 106 -9 9 -12 9 -12 0z"/>
<path d="M3245 5748 c-19 -32 -21 -47 -23 -222 -1 -34 -3 -38 -23 -33 -37 10
-64 -9 -88 -60 -19 -42 -30 -52 -68 -66 l-44 -17 -26 28 c-14 15 -32 40 -39
55 -18 34 -62 54 -79 35 -18 -20 -45 -95 -51 -142 -2 -22 -8 -97 -13 -166 -5
-69 -15 -145 -24 -170 -26 -80 -34 -127 -24 -145 21 -39 151 -61 191 -32 24
18 26 63 4 108 -10 21 -18 43 -18 48 0 6 -9 18 -19 28 -29 27 -31 57 -3 61 31
5 27 18 -9 31 -23 8 -30 15 -25 27 4 11 2 15 -8 11 -21 -8 -39 35 -31 74 9 38
35 78 51 79 6 0 23 9 37 20 14 11 32 20 40 20 9 0 17 5 19 11 2 7 18 -2 35
-19 31 -31 48 -92 34 -120 -12 -22 0 -82 19 -92 10 -5 41 -11 69 -14 39 -2 57
1 75 15 13 11 30 19 38 19 7 0 23 15 36 34 23 33 23 38 17 203 -7 210 -7 285
1 345 4 36 2 51 -9 63 -20 20 -20 20 -42 -17z"/>
</g>
</svg>
